# xmcd
#
# Track frame offsets:
#	150
#	18275
#	31450
#	49605
#	65505
#	76787
#	88082
#	107680
#	123007
#	138207
#	156345
#	168990
#	181695
#	199412
#	214370
#	227695
#	239007
#	253880
#	266815
#	284392
#
# Disc length: 4010 seconds
#
# Revision: 0
# Processed by: cddbd v1.5.2PL0 Copyright (c) Steve Scherf et al.
# Submitted via: EZCDAudioConverter 3.1.2.1
#
DISCID=1b0fa814
DTITLE=Dimitra Galani - Οι Μεγαλύτερες Επιτυχίες Της 
DYEAR=2000
DGENRE=World
TTITLE0=Ήταν Μιά Φορά Κι Έναν Καιρό
TTITLE1=Σ' Όποιον Αρέσουμε
TTITLE2=Συνάντηση
TTITLE3=Ζω
TTITLE4=Μ' Αγαπούσες
TTITLE5=Κλείσε Το Φώς
TTITLE6=Όταν Τραγουδάω
TTITLE7=Ακρογιαλιές Δειλινά
TTITLE8=Το Γρανάζι
TTITLE9=Σαν Με Κοιτάς
TTITLE10=The Man I Love
TTITLE11=Κάποιο Τραίνο
TTITLE12=Πάντα Εσύ
TTITLE13=Αχ Ουρανέ
TTITLE14=Αγάπη Που 'Γινες
TTITLE15=Te Ador
TTITLE16=Μ' Αυτόν Τον Έρωτα
TTITLE17=Κοίτα Πράματα
TTITLE18=Κουτσή Κιθάρα
TTITLE19=Θα Σ' Αγαπώ
EXTD=
EXTT0=
EXTT1=
EXTT2=
EXTT3=
EXTT4=
EXTT5=
EXTT6=
EXTT7=
EXTT8=
EXTT9=
EXTT10=
EXTT11=
EXTT12=
EXTT13=
EXTT14=
EXTT15=
EXTT16=
EXTT17=
EXTT18=
EXTT19=
PLAYORDER=
